<?xml version="1.0" encoding="UTF-8" standalone="no"?>
<svg
   xmlns:dc="http://purl.org/dc/elements/1.1/"
   xmlns:cc="http://creativecommons.org/ns#"
   xmlns:rdf="http://www.w3.org/1999/02/22-rdf-syntax-ns#"
   xmlns:svg="http://www.w3.org/2000/svg"
   xmlns="http://www.w3.org/2000/svg"
   xml:space="preserve"
   enable-background="new 0 0 32 32"
   viewBox="1.6 -3.2 10 13.5"
   height="10"
   width="10"
   y="0px"
   x="0px"
   id="Layer_1"
   version="1.0"><metadata
     id="metadata13"><rdf:RDF><cc:Work
         rdf:about=""><dc:format>image/svg+xml</dc:format><dc:type
           rdf:resource="http://purl.org/dc/dcmitype/StillImage" /><dc:title></dc:title></cc:Work></rdf:RDF></metadata><defs
     id="defs11" /><path
     id="path3"
     d="m 6.6000002,-0.72799663 c 0,-0.39393227 0.3190674,-0.71299937 0.7129996,-0.71299937 l 4.2779962,0 c 0.393932,0 0.712999,0.3190671 0.712999,0.71299937 0,0.39393227 -0.319067,0.71299938 -0.712999,0.71299938 l -4.2779962,0 c -0.3939322,0 -0.7129996,-0.31906711 -0.7129996,-0.71299938 z m 4.9909958,2.13899903 -4.2779962,0 c -0.3939322,0 -0.7129996,0.3190671 -0.7129996,0.7129994 0,0.3939323 0.3190674,0.7129986 0.7129996,0.7129986 l 4.2779962,0 c 0.393932,0 0.712999,-0.3190663 0.712999,-0.7129986 0,-0.3939323 -0.319067,-0.7129994 -0.712999,-0.7129994 z m 0,2.8519976 -9.9819918,0 c -0.3939322,0 -0.71299946,0.3190672 -0.71299946,0.7129994 0,0.3939323 0.31906726,0.7129994 0.71299946,0.7129994 l 9.9819918,0 c 0.393932,0 0.712999,-0.3190671 0.712999,-0.7129994 C 12.303995,4.5820672 11.984928,4.263 11.590996,4.263 Z m 0,2.8519976 -9.9819918,0 c -0.3939322,0 -0.71299946,0.3190672 -0.71299946,0.7129994 0,0.3939323 0.31906726,0.7129994 0.71299946,0.7129994 l 9.9819918,0 c 0.393932,0 0.712999,-0.3190671 0.712999,-0.7129994 0,-0.3939322 -0.319067,-0.7129994 -0.712999,-0.7129994 z M 5.1740013,-0.72799663 c 0,-0.39357567 -0.3190671,-0.71299937 -0.7129993,-0.71299937 l -2.8519978,0 c -0.3939322,0 -0.71299946,0.3194237 -0.71299946,0.71299937 l 0,2.85199843 c 0,0.3935757 0.31906726,0.7129986 0.71299946,0.7129986 l 2.8519978,0 c 0.3939322,0 0.7129993,-0.3194229 0.7129993,-0.7129986 l 0,-2.85199843 z" /></svg>