<svg xmlns="http://www.w3.org/2000/svg" enable-background="new 0 0 32 32" viewBox="1.6 -3.2 10 13.5" height="10" width="10">
 <path d="m6.6-.728c0-.394.319-.713.713-.713h4.278c.394 0 .713.319.713.713 0 .394-.319.713-.713.713h-4.278c-.394 0-.713-.319-.713-.713m4.991 2.139h-4.278c-.394 0-.713.319-.713.713 0 .394.319.713.713.713h4.278c.394 0 .713-.319.713-.713 0-.394-.319-.713-.713-.713m0 2.852h-9.982c-.394 0-.713.319-.713.713 0 .394.319.713.713.713h9.982c.394 0 .713-.319.713-.713 0-.394-.319-.713-.713-.713m0 2.852h-9.982c-.394 0-.713.319-.713.713 0 .394.319.713.713.713h9.982c.394 0 .713-.319.713-.713 0-.394-.319-.713-.713-.713zm-6.417-7.843c0-.394-.319-.713-.713-.713h-2.852c-.394 0-.713.319-.713.713v2.852c0 .394.319.713.713.713h2.852c.394 0 .713-.319.713-.713v-2.852"/>
</svg>
