<?xml version="1.0" encoding="UTF-8" standalone="no"?>
<!-- Created with Inkscape (http://www.inkscape.org/) -->

<svg
   xmlns:dc="http://purl.org/dc/elements/1.1/"
   xmlns:cc="http://creativecommons.org/ns#"
   xmlns:rdf="http://www.w3.org/1999/02/22-rdf-syntax-ns#"
   xmlns:svg="http://www.w3.org/2000/svg"
   xmlns="http://www.w3.org/2000/svg"
   xmlns:sodipodi="http://sodipodi.sourceforge.net/DTD/sodipodi-0.dtd"
   xmlns:inkscape="http://www.inkscape.org/namespaces/inkscape"
   width="210mm"
   height="297mm"
   viewBox="0 0 744.09448819 1052.3622047"
   id="svg2"
   version="1.1"
   inkscape:version="0.91 r13725"
   sodipodi:docname="firstsecondthird.svg">
  <defs
     id="defs4">
    <filter
       inkscape:collect="always"
       style="color-interpolation-filters:sRGB"
       id="filter4210"
       x="-0.0039416825"
       width="1.0078834"
       y="-0.012557362"
       height="1.0251147">
      <feGaussianBlur
         inkscape:collect="always"
         stdDeviation="0.68393064"
         id="feGaussianBlur4212" />
    </filter>
  </defs>
  <sodipodi:namedview
     id="base"
     pagecolor="#6c6c6c"
     bordercolor="#666666"
     borderopacity="1.0"
     inkscape:pageopacity="0"
     inkscape:pageshadow="2"
     inkscape:zoom="3.959798"
     inkscape:cx="127.89417"
     inkscape:cy="805.63387"
     inkscape:document-units="px"
     inkscape:current-layer="layer1"
     showgrid="false"
     inkscape:window-width="2560"
     inkscape:window-height="1027"
     inkscape:window-x="1912"
     inkscape:window-y="22"
     inkscape:window-maximized="1" />
  <metadata
     id="metadata7">
    <rdf:RDF>
      <cc:Work
         rdf:about="">
        <dc:format>image/svg+xml</dc:format>
        <dc:type
           rdf:resource="http://purl.org/dc/dcmitype/StillImage" />
        <dc:title></dc:title>
      </cc:Work>
    </rdf:RDF>
  </metadata>
  <g
     inkscape:label="Layer 1"
     inkscape:groupmode="layer"
     id="layer1">
    <rect
       style="opacity:1;fill:#e5e5e5;fill-opacity:1;stroke:none;stroke-width:1.79999995;stroke-linecap:butt;stroke-linejoin:round;stroke-miterlimit:4;stroke-dasharray:none;stroke-opacity:1"
       id="rect4188"
       width="434.3656"
       height="144.45181"
       x="-78.286819"
       y="144.74014" />
    <path
       id="path4164"
       d="m -69.643415,152.36244 0,130.71484 416.429675,0 0,-130.71484 -416.429675,0 z M 142.44056,183.5265 c 13.58398,0 18.47266,8.03481 18.47266,15.57226 0,12.5072 -14.16517,26.33978 -24.1875,34.45704 l 25.01562,0 0,5.96289 -34.87109,0 0,-5.2168 c 9.44253,-6.95765 28.07812,-23.11007 28.07812,-35.20313 0,-4.38994 -2.23611,-9.60742 -13.0039,-9.60742 -6.62633,0 -11.67795,2.81484 -14.49414,4.80274 l 0,-6.54297 c 3.56165,-2.15356 8.61239,-4.22461 14.99023,-4.22461 z m 130.68555,0 c 13.58398,0 18.38672,7.70401 18.38672,14.91015 0,8.28291 -7.12305,11.18165 -7.12305,11.18165 0,-1e-5 9.93945,3.97607 9.93945,14.16406 0,7.9516 -5.38292,16.40039 -20.375,16.40039 -6.04652,0 -11.01683,-1.57345 -14.74414,-3.47852 l 0,-6.13086 c 3.39599,1.90507 8.11718,3.64453 13.99805,3.64453 9.77384,0 15.1582,-3.72674 15.1582,-10.60156 0,-6.87482 -5.46791,-10.60156 -15.49023,-10.60156 l -6.04688,0 0,-5.71484 6.29688,0 c 8.03443,0 12.42383,-3.14808 12.42383,-8.86329 0,-5.79804 -4.63932,-8.94531 -13.0879,-8.94531 -4.96974,0 -8.94588,1.40752 -11.92773,2.89844 l 0,-6.04688 c 3.31317,-1.57375 7.53923,-2.8164 12.5918,-2.8164 z m -255.246087,0.74609 6.791015,0 0,55.2461 -5.96289,0 0,-49.03321 -11.0175783,7.28906 0,-7.04101 10.1894533,-6.46094 z"
       style="opacity:1;fill:#555753;fill-opacity:1;stroke:#b2b2b2;stroke-width:0;stroke-linecap:butt;stroke-linejoin:round;stroke-miterlimit:4;stroke-dasharray:none;stroke-opacity:1;filter:url(#filter4210)"
       inkscape:connector-curvature="0" />
    <path
       style="opacity:1;fill:#ffffff;fill-opacity:1;stroke:#b2b2b2;stroke-width:0;stroke-linecap:butt;stroke-linejoin:round;stroke-miterlimit:4;stroke-dasharray:none;stroke-opacity:1"
       d="M -70.714844 151.29102 L -70.714844 282.00586 L 345.71484 282.00586 L 345.71484 151.29102 L -70.714844 151.29102 z M 141.36914 182.45508 C 154.95312 182.45508 159.8418 190.48989 159.8418 198.02734 C 159.8418 210.53454 145.67663 224.36712 135.6543 232.48438 L 160.66992 232.48438 L 160.66992 238.44727 L 125.79883 238.44727 L 125.79883 233.23047 C 135.24136 226.27282 153.87695 210.1204 153.87695 198.02734 C 153.87695 193.6374 151.64084 188.41992 140.87305 188.41992 C 134.24672 188.41992 129.1951 191.23476 126.37891 193.22266 L 126.37891 186.67969 C 129.94056 184.52613 134.9913 182.45508 141.36914 182.45508 z M 272.05469 182.45508 C 285.63867 182.45508 290.44141 190.15909 290.44141 197.36523 C 290.44141 205.64814 283.31836 208.54688 283.31836 208.54688 C 283.31836 208.54687 293.25781 212.52295 293.25781 222.71094 C 293.25781 230.66254 287.87489 239.11133 272.88281 239.11133 C 266.83629 239.11133 261.86598 237.53788 258.13867 235.63281 L 258.13867 229.50195 C 261.53466 231.40702 266.25585 233.14648 272.13672 233.14648 C 281.91056 233.14648 287.29492 229.41974 287.29492 222.54492 C 287.29492 215.6701 281.82701 211.94336 271.80469 211.94336 L 265.75781 211.94336 L 265.75781 206.22852 L 272.05469 206.22852 C 280.08912 206.22852 284.47852 203.08044 284.47852 197.36523 C 284.47852 191.56719 279.8392 188.41992 271.39062 188.41992 C 266.42088 188.41992 262.44474 189.82744 259.46289 191.31836 L 259.46289 185.27148 C 262.77606 183.69773 267.00212 182.45508 272.05469 182.45508 z M 16.808594 183.20117 L 23.599609 183.20117 L 23.599609 238.44727 L 17.636719 238.44727 L 17.636719 189.41406 L 6.6191406 196.70312 L 6.6191406 189.66211 L 16.808594 183.20117 z "
       id="rect4151" />
    <g
       style="font-style:normal;font-weight:normal;font-size:82.82914734px;line-height:125%;font-family:Sans;letter-spacing:0px;word-spacing:0px;fill:#000000;fill-opacity:1;stroke:none;stroke-width:1px;stroke-linecap:butt;stroke-linejoin:miter;stroke-opacity:1"
       id="text4147"
       transform="translate(-18.928571,-108.21429)" />
    <rect
       style="opacity:0.23800001;fill:none;fill-opacity:1;stroke:#ffffff;stroke-width:1.79999995;stroke-linecap:butt;stroke-linejoin:round;stroke-miterlimit:4;stroke-dasharray:none;stroke-opacity:1"
       id="rect4186"
       width="100"
       height="100"
       x="224.15988"
       y="160.90767"
       inkscape:export-xdpi="180"
       inkscape:export-ydpi="180" />
  </g>
</svg>
