<?xml version="1.0" encoding="UTF-8" standalone="no"?>
<!-- Generator: Adobe Illustrator 17.1.0, SVG Export Plug-In . SVG Version: 6.00 Build 0)  -->

<svg
   xmlns:dc="http://purl.org/dc/elements/1.1/"
   xmlns:cc="http://creativecommons.org/ns#"
   xmlns:rdf="http://www.w3.org/1999/02/22-rdf-syntax-ns#"
   xmlns:svg="http://www.w3.org/2000/svg"
   xmlns="http://www.w3.org/2000/svg"
   xmlns:xlink="http://www.w3.org/1999/xlink"
   xmlns:sodipodi="http://sodipodi.sourceforge.net/DTD/sodipodi-0.dtd"
   xmlns:inkscape="http://www.inkscape.org/namespaces/inkscape"
   version="1.1"
   id="Layer_1"
   x="0px"
   y="0px"
   viewBox="0 0 64 64"
   enable-background="new 0 0 379 64"
   xml:space="preserve"
   inkscape:version="0.91 r13725"
   sodipodi:docname="newyorktimes.svg"
   width="64"
   height="64"><metadata
     id="metadata215"><rdf:RDF><cc:Work
         rdf:about=""><dc:format>image/svg+xml</dc:format><dc:type
           rdf:resource="http://purl.org/dc/dcmitype/StillImage" /><dc:title></dc:title></cc:Work></rdf:RDF></metadata><defs
     id="defs213" /><sodipodi:namedview
     pagecolor="#ffffff"
     bordercolor="#666666"
     borderopacity="1"
     objecttolerance="10"
     gridtolerance="10"
     guidetolerance="10"
     inkscape:pageopacity="0"
     inkscape:pageshadow="2"
     inkscape:window-width="1601"
     inkscape:window-height="983"
     id="namedview211"
     showgrid="false"
     inkscape:zoom="1.4353562"
     inkscape:cx="178.19573"
     inkscape:cy="79.867932"
     inkscape:window-x="0"
     inkscape:window-y="30"
     inkscape:window-maximized="0"
     inkscape:current-layer="Layer_1" /><g
     id="g9"
     transform="translate(15.817497,1.7527041)"><g
       id="g11"><defs
         id="defs13"><polygon
           points="2,61.8 1.3,11 375.3,11 376,61.8 "
           id="SVGID_1_" /></defs><clipPath
         id="SVGID_2_"><use
           height="100%"
           width="100%"
           y="0"
           x="0"
           style="overflow:visible"
           id="use17"
           overflow="visible"
           xlink:href="#SVGID_1_" /></clipPath><path
         style="fill:#251802"
         inkscape:connector-curvature="0"
         id="path19"
         d="m 13,39.2 0,-13.7 -4.5,1.8 c 0,0 -1.1,2.3 -0.9,5.7 0.1,2.7 1.7,5.8 2.9,7.2 l 2.5,-1 z M 25.1,11 c 1,0.1 2.7,0.6 3.9,1.6 1.3,1.2 1.6,3.1 1.2,4.8 -0.4,1.5 -0.9,2.3 -2.5,3.4 -1.6,1.1 -2.8,1.2 -2.8,1.2 l 0,6.6 3.1,2.4 -3.1,2.8 0,9 c 0,0 2.6,-2.1 4.6,-6.2 0,0 0.1,-0.2 0.3,-0.7 0.2,1.1 0.1,3.4 -1.2,6.2 -1,2.2 -2.7,4.2 -5,5.4 -3.9,2.1 -6.9,2.3 -10,1.7 C 9.9,48.5 6.5,46.5 4.3,43 2.7,40.5 2,37.7 2,34.6 2.1,28.5 6.8,23.3 12.2,21.3 c 0.7,-0.2 0.9,-0.4 1.8,-0.5 -0.4,0.3 -0.9,0.6 -1.5,1 -1.7,1.1 -3.2,3.3 -3.9,5 l 10.4,-4.5 0,14.1 -8.3,4.1 c 1,1.3 3.9,3.2 6.4,3.5 4.2,0.5 7,-1.1 7,-1.1 l 0,-9.2 -3.1,-2.7 3.1,-2.4 0,-6.6 c -1.8,-0.2 -4.3,-1 -5.5,-1.3 -1.9,-0.4 -8.1,-2.1 -9.1,-2.3 -1,-0.1 -2.2,-0.1 -2.9,0.5 -0.7,0.6 -1.2,1.8 -0.9,2.8 0.2,0.6 0.6,0.9 0.9,1.2 0,0 -0.4,0 -1,-0.4 -1.2,-0.7 -2.1,-2 -2.2,-3.7 -0.1,-2.1 0.8,-4.1 2.6,-5.4 1.6,-1 3.4,-1.6 5.5,-1.3 3.1,0.4 7.2,2.1 10.9,3 1.4,0.3 2.5,0.4 3.5,-0.1 0.5,-0.3 1.3,-1.2 0.6,-2.3 C 25.7,11.4 24.2,11.4 22.9,11.2 24.1,11 24.3,11 25.1,11"
         clip-path="url(#SVGID_2_)" /></g></g></svg>