<?xml version="1.0" encoding="UTF-8" standalone="no"?>
<!-- Generator: Adobe Illustrator 15.0.2, SVG Export Plug-In . SVG Version: 6.00 Build 0)  -->

<svg
   xmlns:dc="http://purl.org/dc/elements/1.1/"
   xmlns:cc="http://creativecommons.org/ns#"
   xmlns:rdf="http://www.w3.org/1999/02/22-rdf-syntax-ns#"
   xmlns:svg="http://www.w3.org/2000/svg"
   xmlns="http://www.w3.org/2000/svg"
   xmlns:xlink="http://www.w3.org/1999/xlink"
   xmlns:sodipodi="http://sodipodi.sourceforge.net/DTD/sodipodi-0.dtd"
   xmlns:inkscape="http://www.inkscape.org/namespaces/inkscape"
   version="1.1"
   id="Layer_1"
   x="0px"
   y="0px"
   width="298.65652"
   height="50.838001"
   viewBox="0 0 298.65652 50.838001"
   enable-background="new 0 0 379 64"
   xml:space="preserve"
   inkscape:version="0.91 r13725"
   sodipodi:docname="nytimes.svg"><metadata
     id="metadata187"><rdf:RDF><cc:Work
         rdf:about=""><dc:format>image/svg+xml</dc:format><dc:type
           rdf:resource="http://purl.org/dc/dcmitype/StillImage" /><dc:title></dc:title></cc:Work></rdf:RDF></metadata><defs
     id="defs185" /><sodipodi:namedview
     pagecolor="#ffffff"
     bordercolor="#666666"
     borderopacity="1"
     objecttolerance="10"
     gridtolerance="10"
     guidetolerance="10"
     inkscape:pageopacity="0"
     inkscape:pageshadow="2"
     inkscape:window-width="1920"
     inkscape:window-height="1007"
     id="namedview183"
     showgrid="false"
     fit-margin-top="0"
     fit-margin-left="0"
     fit-margin-right="0"
     fit-margin-bottom="0"
     inkscape:zoom="1.23219"
     inkscape:cx="113.77965"
     inkscape:cy="29.838"
     inkscape:window-x="0"
     inkscape:window-y="34"
     inkscape:window-maximized="1"
     inkscape:current-layer="g5" /><g
     id="g3"
     transform="translate(-77.343477,-11)"><g
       id="g5"><g
         id="g43"><g
           id="g45"><defs
             id="defs47"><polygon
               id="SVGID_7_"
               points="2,61.838 1,11 375,11 376,61.838 " /></defs><clipPath
             id="SVGID_8_"><use
               xlink:href="#SVGID_7_"
               overflow="visible"
               id="use51"
               style="overflow:visible"
               x="0"
               y="0"
               width="100%"
               height="100%" /></clipPath><path
             clip-path="url(#SVGID_8_)"
             d="m 84.633,52.787 c -2.64,-0.303 -3.747,-1.842 -3.716,-3.064 0.024,-0.789 0.754,-2.315 2.355,-2.529 1.599,-0.207 3.238,0.518 4.625,2.092 l 6.088,-6.516 -0.293,-0.262 -1.636,1.771 C 90.395,42.459 88.349,41.298 86,40.967 l 0,-19.848 15.51,27.902 c 0,0 0.404,0.31 1.051,0.31 0.561,0.008 0.425,-0.446 0.425,-0.446 L 102.98,20.82 c 1.292,-0.049 3.004,-0.742 3.954,-1.679 3.046,-3.035 1.805,-6.333 1.47,-6.661 -0.188,1.45 -1.331,2.897 -3.244,2.907 -2.517,0.008 -4.048,-1.786 -4.048,-1.786 l -6.088,6.711 0.293,0.259 1.741,-1.925 c 2.133,1.896 3.338,2.072 4.943,2.174 l 0,16.295 -11.389,-20.649 c -1.059,-1.694 -2.675,-3.198 -5.213,-3.214 -2.917,-0.017 -5,2.466 -5.256,4.601 -0.277,2.43 0.039,2.986 0.039,2.986 0,0 0.425,-2.704 2.146,-2.665 C 83.874,18.19 84.376,18.968 85,20 l 0,6.579 c -1.596,0.117 -5.448,0.285 -5.707,4.469 -0.014,1.558 0.986,3.188 1.858,3.742 1.124,0.719 2.001,0.694 2.001,0.694 0,0 -1.349,-0.69 -0.947,-2.065 0.364,-1.218 2.7,-1.418 2.795,-0.905 l 0,8.428 c -1.273,-0.012 -5.04,0.129 -6.867,3.5 -1.108,2.029 -1.039,4.317 0.139,5.92 0.966,1.315 2.949,2.99 6.361,2.425"
             id="path53"
             inkscape:connector-curvature="0"
             style="fill:#251802" /></g></g><g
         id="g55"><g
           id="g57"><defs
             id="defs59"><polygon
               id="SVGID_9_"
               points="2,61.838 1,11 375,11 376,61.838 " /></defs><clipPath
             id="SVGID_10_"><use
               xlink:href="#SVGID_9_"
               overflow="visible"
               id="use63"
               style="overflow:visible"
               x="0"
               y="0"
               width="100%"
               height="100%" /></clipPath><path
             clip-path="url(#SVGID_10_)"
             d="m 118.179,35.598 -4.74,3.36 0,-11.185 4.74,7.825 z m -0.135,-10.762 c 0,0 -3.201,1.888 -5.352,3.127 -2.154,1.227 -5.037,2.602 -5.037,2.602 l 0,13.026 -1.926,1.49 0.257,0.294 1.878,-1.471 5.883,5.147 10.235,-7.845 -0.24,-0.284 -5.662,4.295 -4.642,-4.211 0,-1.569 9.332,-6.646 -4.726,-7.955 z"
             id="path65"
             inkscape:connector-curvature="0"
             style="fill:#251802" /></g></g><g
         id="g67"><g
           id="g69"><defs
             id="defs71"><polygon
               id="SVGID_11_"
               points="2,61.838 1,11 375,11 376,61.838 " /></defs><clipPath
             id="SVGID_12_"><use
               xlink:href="#SVGID_11_"
               overflow="visible"
               id="use75"
               style="overflow:visible"
               x="0"
               y="0"
               width="100%"
               height="100%" /></clipPath><path
             clip-path="url(#SVGID_12_)"
             d="m 132.35,49.156 -5.015,-4.032 -2.206,1.538 -0.219,-0.294 2.234,-1.582 0,-11.288 c 0.111,-4.642 -4.393,-3.49 -4.146,-8.425 0.104,-2.164 2.27,-3.796 3.366,-4.336 1.16,-0.574 2.439,-0.574 2.439,-0.574 0,0 -2.063,1.245 -1.562,3.033 0.771,2.752 5.638,2.993 5.722,6.663 l 0.037,12.795 3.059,2.797 0.941,-0.721 0,-13.859 -1.435,-1.86 4.993,-4.267 4.559,3.906 -2.117,1.821 0,12.275 4.64,3.411 0.763,-0.464 0,-14.784 -1.95,-1.757 5.011,-4.426 4.667,3.736 1.87,-1.593 0.249,0.282 -4.25,3.566 0,12.047 -10.697,6.416 -5.303,-4.207 -5.65,4.183 z"
             id="path77"
             inkscape:connector-curvature="0"
             style="fill:#251802" /></g></g><g
         id="g79"><g
           id="g81"><defs
             id="defs83"><polygon
               id="SVGID_13_"
               points="2,61.838 1,11 375,11 376,61.838 " /></defs><clipPath
             id="SVGID_14_"><use
               xlink:href="#SVGID_13_"
               overflow="visible"
               id="use87"
               style="overflow:visible"
               x="0"
               y="0"
               width="100%"
               height="100%" /></clipPath><path
             clip-path="url(#SVGID_14_)"
             d="m 352.346,35.598 -4.754,3.36 0,-11.185 4.754,7.825 z m -0.144,-10.762 c 0,0 -3.201,1.888 -5.35,3.127 C 344.706,29.19 342,30.565 342,30.565 l 0,13.026 -2.113,1.49 0.255,0.294 1.882,-1.471 5.884,5.147 10.233,-7.845 -0.24,-0.284 -5.654,4.295 -4.654,-4.211 0.006,-1.569 9.339,-6.646 -4.736,-7.955 z"
             id="path89"
             inkscape:connector-curvature="0"
             style="fill:#251802" /></g></g></g><polygon
       points="311.22,32.102 311.22,42.874 309.839,44.087 314.298,48.971 318.863,44.607 316.988,42.723 316.988,29.7 318.121,28.819 321,32.392 321,43.133 320.102,44.277 324.305,48.85 328.787,44.502 327,42.831 327,29.753 328.305,28.804 332,32.32 332,42.988 330.521,44.043 335.158,48.938 341.377,43.368 341.119,43.094 339.601,44.439 337,41.956 337,29.772 339.521,28.126 339.286,27.828 337.046,29.47 332.811,24.877 326.764,29.509 322.518,25.051 316.672,29.466 312.392,25.062 306.188,30.292 306.436,30.568 308.365,28.972 "
       id="polygon91"
       style="fill:#251802" /><polygon
       points="298,31.79 298,44.1 296.16,45.618 296.404,45.898 298.287,44.343 302.402,48.934 308.329,43.803 308.082,43.52 306.336,45.011 303.875,42.271 303.875,30.237 305.951,28.502 305.695,28.218 303.73,29.855 299.4,24.979 293,29.957 293.773,30.233 295.4,28.874 "
       id="polygon93"
       style="fill:#251802" /><polygon
       points="298.846,23.646 295.234,19.766 299.702,15.806 303.336,19.701 "
       id="polygon95"
       style="fill:#251802" /><g
       id="g97"><g
         id="g99"><g
           id="g101"><defs
             id="defs103"><polygon
               id="SVGID_15_"
               points="2,61.838 1,11 375,11 376,61.838 " /></defs><clipPath
             id="SVGID_16_"><use
               xlink:href="#SVGID_15_"
               overflow="visible"
               id="use107"
               style="overflow:visible"
               x="0"
               y="0"
               width="100%"
               height="100%" /></clipPath><path
             clip-path="url(#SVGID_16_)"
             d="m 274.784,39.15 0,-13.652 -4.245,1.845 c 0,0 -1.079,2.336 -0.893,5.743 0.146,2.65 1.686,5.832 2.861,7.16 l 2.277,-1.096 z m 12.411,-28.103 c 1.051,0.083 2.693,0.591 3.926,1.639 1.322,1.231 1.621,3.109 1.154,4.808 -0.407,1.521 -0.859,2.314 -2.461,3.354 -1.627,1.067 -2.814,0.978 -2.814,0.978 l 0,6.574 3,2.593 -3,2.581 0,8.926 c 0,0 2.549,-1.802 4.6,-5.906 0,0 0.092,-0.229 0.279,-0.662 0.182,1.112 0.076,3.352 -1.209,6.204 -0.975,2.158 -2.738,4.242 -4.956,5.433 -3.926,2.097 -6.871,2.304 -10.024,1.666 -3.697,-0.742 -7.053,-2.734 -9.344,-6.25 -1.606,-2.469 -2.326,-5.338 -2.265,-8.436 0.128,-6.068 4.794,-11.291 10.185,-13.256 0.645,-0.234 0.909,-0.39 1.838,-0.466 -0.43,0.28 -0.916,0.637 -1.528,1.026 -1.735,1.118 -3.224,3.306 -3.856,4.999 l 10.448,-4.51 0,14.143 -8.424,4.072 c 0.959,1.307 3.873,3.245 6.366,3.519 4.248,0.452 6.891,-1.339 6.891,-1.339 l 0,-9.158 -3,-2.581 3,-2.587 0,-6.584 c -1.796,-0.202 -4.123,-0.781 -5.404,-1.085 -1.877,-0.445 -8.125,-2.143 -9.098,-2.28 -0.984,-0.141 -2.195,-0.098 -2.926,0.533 -0.734,0.641 -1.194,1.765 -0.874,2.78 0.172,0.572 0.583,0.909 0.884,1.232 0,0 -0.357,-0.029 -1.006,-0.407 -1.184,-0.684 -2.088,-2.029 -2.186,-3.688 -0.145,-2.15 0.786,-4.104 2.629,-5.425 1.601,-0.988 3.414,-1.633 5.524,-1.344 3.074,0.422 7.21,2.116 10.901,2.971 1.428,0.331 2.535,0.44 3.533,-0.127 0.467,-0.317 1.285,-1.159 0.617,-2.286 -0.787,-1.306 -2.285,-1.271 -3.56,-1.513 1.104,-0.219 1.341,-0.219 2.16,-0.141"
             id="path109"
             inkscape:connector-curvature="0"
             style="fill:#251802" /></g></g><g
         id="g111"><g
           id="g113"><defs
             id="defs115"><polygon
               id="SVGID_17_"
               points="2,61.838 1,11 375,11 376,61.838 " /></defs><clipPath
             id="SVGID_18_"><use
               xlink:href="#SVGID_17_"
               overflow="visible"
               id="use119"
               style="overflow:visible"
               x="0"
               y="0"
               width="100%"
               height="100%" /></clipPath><path
             clip-path="url(#SVGID_18_)"
             d="m 365.519,27.362 0,6.464 2.231,1.883 c 0,0 4.825,-3.751 6.586,-7.219 0,0 -2.177,2.852 -5.095,1.981 -2.45,-0.728 -3.722,-3.109 -3.722,-3.109 m -5.398,17.14 c 0,0 2.12,-3.381 5.754,-2.65 3.488,0.695 4.7,4.263 4.7,4.263 l 0,-8.212 -2.432,-2.043 c -2.673,2.6 -7.423,6.365 -8.022,8.642 m 3.465,6.243 c -0.679,0.192 -3.616,-0.502 -4.331,-3.461 -0.689,-2.873 1.386,-4.825 4.503,-7.901 l -3.684,-3.259 0,-6.222 c 0,0 2.709,-1.307 4.827,-2.591 2.117,-1.289 4.293,-2.674 4.293,-2.674 0,0 1.582,1.926 3.368,1.782 2.814,-0.242 2.675,-2.381 2.591,-2.883 0.479,0.823 1.763,3.282 -3.161,8.777 l 4.008,3.126 0,8.084 c 0,0 -4.65,2.349 -9.057,5.459 0,0 -2.455,-2.979 -4.596,-1.551 -1.448,0.964 -0.777,2.587 1.239,3.314"
             id="path121"
             inkscape:connector-curvature="0"
             style="fill:#251802" /></g></g><g
         id="g123"><g
           id="g125"><defs
             id="defs127"><polygon
               id="SVGID_19_"
               points="2,61.838 1,11 375,11 376,61.838 " /></defs><clipPath
             id="SVGID_20_"><use
               xlink:href="#SVGID_19_"
               overflow="visible"
               id="use131"
               style="overflow:visible"
               x="0"
               y="0"
               width="100%"
               height="100%" /></clipPath><path
             clip-path="url(#SVGID_20_)"
             d="m 202,41.535 5.176,4.547 0,-13.883 -5.176,-4.626 0,13.962 z m 11.121,-11.323 1.811,-1.608 0.258,0.288 -2.19,1.576 0,12.852 c 0,0 -2.904,1.726 -5.234,2.982 -2.33,1.288 -4.83,2.776 -4.83,2.776 l -6.119,-5.001 -1.621,1.374 -0.264,-0.298 2.068,-1.432 0,-13.82 -0.343,0 c 0,0 2.89,-1.26 5.329,-2.591 2.181,-1.188 4.621,-2.573 4.621,-2.573 l 6.514,5.475 z"
             id="path133"
             inkscape:connector-curvature="0"
             style="fill:#251802" /></g></g><g
         id="g135"><g
           id="g137"><defs
             id="defs139"><polygon
               id="SVGID_21_"
               points="2,61.838 1,11 375,11 376,61.838 " /></defs><clipPath
             id="SVGID_22_"><use
               xlink:href="#SVGID_21_"
               overflow="visible"
               id="use143"
               style="overflow:visible"
               x="0"
               y="0"
               width="100%"
               height="100%" /></clipPath><path
             clip-path="url(#SVGID_22_)"
             d="m 225.164,28.919 3.896,-3.856 c 0,0 0.539,0.455 1.039,0.697 0.286,0.134 1.463,0.715 2.545,0.146 0.588,-0.313 0.668,-0.394 1.313,-0.979 0.128,2.998 -1.354,5.098 -3.205,5.971 -0.759,0.358 -3.433,1.044 -5.753,-1.691 l 0,13.836 2.92,2.104 2.066,-1.645 0.23,0.286 -6.438,5.203 -4.902,-4.32 -1.756,1.612 -0.295,-0.297 2.176,-2.341 0.023,-11.943 -1.553,-2.641 -1.766,1.505 -0.253,-0.271 6.235,-5.437 3.478,4.061 z"
             id="path145"
             inkscape:connector-curvature="0"
             style="fill:#251802" /></g></g><g
         id="g147"><g
           id="g149"><defs
             id="defs151"><polygon
               id="SVGID_23_"
               points="2,61.838 1,11 375,11 376,61.838 " /></defs><clipPath
             id="SVGID_24_"><use
               xlink:href="#SVGID_23_"
               overflow="visible"
               id="use155"
               style="overflow:visible"
               x="0"
               y="0"
               width="100%"
               height="100%" /></clipPath><path
             clip-path="url(#SVGID_24_)"
             d="m 241.582,34.684 7.191,-10.136 c 0,0 0.953,1.085 2.606,1.504 2.239,0.566 4.212,-1.533 4.212,-1.533 -0.379,2.712 -1.805,5.791 -4.73,6.257 -2.582,0.413 -4.984,-1.525 -4.984,-1.525 l -0.459,0.697 9.982,14.604 1.998,-1.69 0.262,0.281 -6.857,5.793 -9.221,-14.252 z"
             id="path157"
             inkscape:connector-curvature="0"
             style="fill:#251802" /></g></g><g
         id="g159"><g
           id="g161"><defs
             id="defs163"><polygon
               id="SVGID_25_"
               points="2,61.838 1,11 375,11 376,61.838 " /></defs><clipPath
             id="SVGID_26_"><use
               xlink:href="#SVGID_25_"
               overflow="visible"
               id="use167"
               style="overflow:visible"
               x="0"
               y="0"
               width="100%"
               height="100%" /></clipPath><path
             clip-path="url(#SVGID_26_)"
             d="m 236,21.145 c 0,-2.184 -1.292,-3.533 -2.501,-3.438 l 7.501,-5.333 0,30.206 2.418,2.115 1.564,-1.319 0.256,0.289 -6.327,5.347 -4.291,-3.902 -1.704,1.467 -0.277,-0.289 3.361,-2.524 0,-22.619 0,0 z"
             id="path169"
             inkscape:connector-curvature="0"
             style="fill:#251802" /></g></g><g
         id="g171"><g
           id="g173"><defs
             id="defs175"><polygon
               id="SVGID_27_"
               points="2,61.838 1,11 375,11 376,61.838 " /></defs><clipPath
             id="SVGID_28_"><use
               xlink:href="#SVGID_27_"
               overflow="visible"
               id="use179"
               style="overflow:visible"
               x="0"
               y="0"
               width="100%"
               height="100%" /></clipPath><path
             clip-path="url(#SVGID_28_)"
             d="m 185.242,29.638 c 0,0 -0.866,0.954 -2.242,0.954 -1.355,0 -2,-0.954 -2,-0.954 l 0,4.133 c 0,0 0.644,-0.967 2,-0.967 1.378,0 2.242,0.916 2.242,0.916 l 0,-4.082 z M 185,20.774 l -2.533,-2.577 -1.467,1.12 0,9.703 c 0,0 0.905,1.104 2.267,1.104 1.37,0 1.733,-1.063 1.733,-1.063 l 0,-8.287 z m -3.998,27.474 c 0,0 1.841,0.48 3.169,-0.584 C 185.649,46.479 185,44.82 185,44.82 l 0,-10.466 c 0,0 -0.363,-1.06 -1.733,-1.06 -1.361,0 -2.267,1.095 -2.267,1.095 l 0,13.859 0.002,0 z M 170.019,20.645 c 0,-2.028 -0.86,-3.178 -2.246,-3.205 -1.986,-0.041 -2.47,2.677 -2.47,2.677 0,0 -0.363,-2.09 1.456,-3.999 1.018,-1.071 2.923,-2.56 5.897,-1.868 3.072,0.717 4.344,3.025 4.344,5.064 l 0,28.11 c 0,0 0.766,0.133 1.568,0.297 0.918,0.196 1.432,0.434 1.432,0.434 l 0,-33.894 1,0 0,4.578 6.056,-4.913 4.615,3.968 2.151,-1.81 0.242,0.288 -2.248,1.876 0,26.132 c -0.113,1.716 -0.396,3.44 -2.059,4.435 -3.709,2.139 -8.188,-0.324 -12.174,-0.883 -2.962,-0.42 -7.605,-0.965 -8.766,1.662 -0.389,0.867 -0.36,2.201 0.985,3.068 2.689,1.742 14.682,-2.928 18.805,-1.066 3.748,1.688 3.735,4.364 3.156,6.191 -0.978,3.443 -5.473,4.052 -5.473,4.052 0,0 2.198,-1.233 1.57,-3.274 -0.316,-1.043 -1.045,-1.33 -3.402,-1.07 -5.139,0.557 -11.282,2.977 -15.411,1.299 -2.13,-0.857 -3.626,-3.432 -3.489,-5.959 0.106,-3.648 4.456,-5.088 4.456,-5.088 l 0,-13.46 c -0.133,-0.539 -2.444,-0.392 -2.952,0.597 -0.77,1.492 0.953,2.189 0.953,2.189 0,0 -1.429,0.193 -2.629,-1.147 -0.589,-0.646 -1.809,-2.94 -0.225,-5.062 1.309,-1.752 2.871,-2.056 4.853,-2.268 l 0,-7.949 0.005,-0.002 0,0 z"
             id="path181"
             inkscape:connector-curvature="0"
             style="fill:#251802" /></g></g></g></g></svg>