<?xml version="1.0" encoding="UTF-8" standalone="no"?>
<!-- Created with Inkscape (http://www.inkscape.org/) -->

<svg
   xmlns:dc="http://purl.org/dc/elements/1.1/"
   xmlns:cc="http://creativecommons.org/ns#"
   xmlns:rdf="http://www.w3.org/1999/02/22-rdf-syntax-ns#"
   xmlns:svg="http://www.w3.org/2000/svg"
   xmlns="http://www.w3.org/2000/svg"
   xmlns:sodipodi="http://sodipodi.sourceforge.net/DTD/sodipodi-0.dtd"
   xmlns:inkscape="http://www.inkscape.org/namespaces/inkscape"
   width="220"
   height="40"
   id="svg2"
   version="1.1"
   inkscape:version="0.48.2 r9819"
   sodipodi:docname="Oanda-logo.svg">
  <title
     id="title3351">OANDA logo</title>
  <defs
     id="defs4">
    <clipPath
       id="clipPath3209"
       clipPathUnits="userSpaceOnUse">
      <path
         id="path3211"
         d="M 0,532.742 0,0 l 3009.5,0 0,532.742 -3009.5,0 z"
         inkscape:connector-curvature="0" />
    </clipPath>
  </defs>
  <sodipodi:namedview
     id="base"
     pagecolor="#ffffff"
     bordercolor="#666666"
     borderopacity="1.0"
     inkscape:pageopacity="0.0"
     inkscape:pageshadow="2"
     inkscape:zoom="1.858116"
     inkscape:cx="167.12231"
     inkscape:cy="21.811978"
     inkscape:document-units="px"
     inkscape:current-layer="layer1"
     showgrid="false"
     units="px"
     inkscape:window-width="1024"
     inkscape:window-height="689"
     inkscape:window-x="0"
     inkscape:window-y="27"
     inkscape:window-maximized="1"
     fit-margin-top="0"
     fit-margin-left="0"
     fit-margin-right="0"
     fit-margin-bottom="0" />
  <metadata
     id="metadata7">
    <rdf:RDF>
      <cc:Work
         rdf:about="">
        <dc:format>image/svg+xml</dc:format>
        <dc:type
           rdf:resource="http://purl.org/dc/dcmitype/StillImage" />
        <dc:title>OANDA logo</dc:title>
        <dc:date>2012-02-08</dc:date>
        <dc:creator>
          <cc:Agent>
            <dc:title>Oanda Corporation</dc:title>
          </cc:Agent>
        </dc:creator>
        <dc:rights>
          <cc:Agent>
            <dc:title>Oanda Corporation</dc:title>
          </cc:Agent>
        </dc:rights>
        <dc:publisher>
          <cc:Agent>
            <dc:title>Oanda Corporation</dc:title>
          </cc:Agent>
        </dc:publisher>
        <dc:description>Logo for Oanda Corporation of Toronto, Ontario, Canada</dc:description>
      </cc:Work>
    </rdf:RDF>
  </metadata>
  <g
     inkscape:label="Layer 1"
     inkscape:groupmode="layer"
     id="layer1"
     transform="translate(-242.42966,-483.0856)">
    <g
       id="g3318"
       transform="matrix(0.57949251,0,0,0.57949251,148.77943,211.14272)">
      <g
         id="g3288">
        <path
           id="path3223"
           style="fill:#ffffff;fill-opacity:1;fill-rule:nonzero;stroke:none"
           d="m 181.0262,477.57422 0,-3.03163 0,3.03163"
           inkscape:connector-curvature="0" />
        <path
           id="path3225"
           style="fill:#abd91b;fill-opacity:1;fill-rule:nonzero;stroke:none"
           d="m 187.00233,535.66753 c 3.04975,0.92139 6.28125,1.41944 9.62987,1.41944 6.56788,0 12.68413,-1.90918 17.84125,-5.18799 l -27.47112,-34.01364 0,37.78219"
           inkscape:connector-curvature="0" />
        <path
           id="path3227"
           style="fill:#abd91b;fill-opacity:1;fill-rule:nonzero;stroke:none"
           d="m 187.00233,475.79597 37.42187,46.32762 c 3.47601,-5.25737 5.50538,-11.55912 5.50538,-18.3325 0,-18.38912 -14.90775,-33.29687 -33.29738,-33.29687 -6.62837,0 -12.79987,1.94575 -17.98975,5.28462 l 8.35988,0 0,0.0171"
           inkscape:connector-curvature="0" />
        <path
           id="path3229"
           style="fill:#abd91b;fill-opacity:1;fill-rule:nonzero;stroke:none"
           d="m 163.33483,503.78959 c 0,9.064 3.62793,17.27925 9.50244,23.28273 l 0,-46.56448 c -5.87451,6.00538 -9.50244,14.21825 -9.50244,23.28175"
           inkscape:connector-curvature="0" />
      </g>
      <g
         id="g3310">
        <path
           id="path3213"
           style="fill:#100f0d;fill-opacity:1;fill-rule:nonzero;stroke:none"
           d="m 375.70483,474.40147 6.35,0 34.76125,50.47016 0.16875,0 0,-50.47016 5.68125,0 0,59.66304 -6.35125,0 -34.76125,-50.46879 -0.1675,0 0,50.46879 -5.68125,0 0,-59.66304"
           inkscape:connector-curvature="0" />
        <path
           id="path3215"
           style="fill:#100f0d;fill-opacity:1;fill-rule:nonzero;stroke:none"
           d="m 331.84858,516.11434 13.8725,-35.48687 13.76375,35.48687 -27.63625,0 z m 34.595,17.95017 6.09875,0 -23.395,-59.66167 -6.3525,0 -24.06375,59.66167 6.1,0 5.1225,-13.10454 31.40875,0 5.08125,13.10454"
           inkscape:connector-curvature="0" />
        <path
           id="path3217"
           style="fill:#100f0d;fill-opacity:1;fill-rule:nonzero;stroke:none"
           d="m 289.81608,529.86284 c -14.73325,0 -25.2215,-11.57225 -25.2215,-25.84575 0,-14.27387 10.36187,-25.84375 25.2215,-25.84375 14.73125,0 25.34125,11.56988 25.34125,25.84375 0,14.2735 -10.36125,25.84575 -25.34125,25.84575 m -0.0138,-56.86475 c -17.83175,0 -30.26925,13.88775 -30.26925,31.019 0,17.13238 12.58638,31.01763 30.26925,31.01763 17.98125,0 30.41875,-13.88525 30.41875,-31.01763 0,-17.13125 -12.7375,-31.019 -30.41875,-31.019"
           inkscape:connector-curvature="0" />
        <path
           id="path3219"
           style="fill:#100f0d;fill-opacity:1;fill-rule:nonzero;stroke:none"
           d="m 449.46858,534.06842 -19.0175,0 0,-59.66745 19.0175,0 c 17.96875,0.41837 29.93375,14.25487 29.93375,30.82075 0,15.46775 -12.08625,28.8467 -29.93375,28.8467 m -13.33375,-54.51658 0,49.34812 13.0175,0 c 16.18875,0 24.8975,-12.27049 24.8975,-24.01024 0,-12.51125 -7.945,-25.33788 -24.8975,-25.33788 l -13.0175,0"
           inkscape:connector-curvature="0" />
        <path
           id="path3221"
           style="fill:#100f0d;fill-opacity:1;fill-rule:nonzero;stroke:none"
           d="m 491.18733,516.11434 0,-33.05275 0.39,0 26.6675,33.05275 -27.0575,0 z m 41.5375,17.95017 6.7975,0 -48.2,-59.66167 -5.81875,0 0,59.66167 5.68375,0 0,-13.10454 30.96625,0 10.57125,13.10454"
           inkscape:connector-curvature="0" />
        <path
           inkscape:connector-curvature="0"
           id="path3299"
           style="font-size:18px;font-style:normal;font-variant:normal;font-weight:normal;font-stretch:normal;text-align:justify;line-height:125%;letter-spacing:0px;word-spacing:0px;writing-mode:lr-tb;text-anchor:start;fill:#000000;fill-opacity:1;stroke:none;font-family:Arial;-inkscape-font-specification:Arial"
           d="m 532.89539,474.40283 c 1.11327,2e-5 2.20018,0.28712 3.26074,0.86133 1.06053,0.56837 1.8867,1.38575 2.47851,2.45215 0.59179,1.06055 0.88769,2.16797 0.8877,3.32226 -10e-6,1.14259 -0.29298,2.24122 -0.87891,3.2959 -0.58009,1.05469 -1.39747,1.875 -2.45215,2.46094 -1.04883,0.58008 -2.14746,0.87012 -3.29589,0.87012 -1.14845,0 -2.25001,-0.29004 -3.30469,-0.87012 -1.04883,-0.58594 -1.86621,-1.40625 -2.45215,-2.46094 -0.58594,-1.05468 -0.87891,-2.15331 -0.87891,-3.2959 0,-1.15429 0.2959,-2.26171 0.8877,-3.32226 0.59765,-1.0664 1.42675,-1.88378 2.4873,-2.45215 1.06055,-0.57421 2.14746,-0.86131 3.26075,-0.86133 m 0,1.09863 c -0.93165,2e-5 -1.83985,0.24025 -2.72461,0.72071 -0.87891,0.47462 -1.56739,1.15723 -2.06543,2.04785 -0.49805,0.88477 -0.74707,1.80762 -0.74707,2.76855 0,0.95509 0.24316,1.87208 0.72949,2.75098 0.49218,0.87305 1.17773,1.55567 2.05664,2.04785 0.8789,0.48633 1.79589,0.7295 2.75098,0.72949 0.95507,10e-6 1.87206,-0.24316 2.75097,-0.72949 0.8789,-0.49218 1.56151,-1.1748 2.04785,-2.04785 0.48632,-0.8789 0.72948,-1.79589 0.7295,-2.75098 -2e-5,-0.96093 -0.24904,-1.88378 -0.74707,-2.76855 -0.4922,-0.89062 -1.18068,-1.57323 -2.06543,-2.04785 -0.88478,-0.48046 -1.79005,-0.72069 -2.71582,-0.72071 m -2.90918,9.20215 0,-7.13672 2.45214,0 c 0.83789,10e-6 1.44433,0.0674 1.81934,0.20215 0.37499,0.12892 0.67382,0.35743 0.89648,0.68555 0.22265,0.32813 0.33398,0.67677 0.33399,1.0459 -10e-6,0.52149 -0.18751,0.97559 -0.5625,1.3623 -0.36915,0.38673 -0.86134,0.60352 -1.47656,0.65039 0.25194,0.10548 0.45409,0.23145 0.60644,0.37793 0.2871,0.28126 0.63867,0.75294 1.05469,1.41504 l 0.87012,1.39746 -1.40625,0 -0.63282,-1.125 c -0.49805,-0.88476 -0.89942,-1.43847 -1.2041,-1.66113 -0.21094,-0.16406 -0.51856,-0.24609 -0.92285,-0.24609 l -0.67676,0 0,3.03222 -1.15136,0 m 1.15136,-4.0166 1.39746,0 c 0.66797,1e-5 1.12207,-0.0996 1.36231,-0.29883 0.24608,-0.19921 0.36913,-0.46288 0.36914,-0.79101 -10e-6,-0.21093 -0.0586,-0.39843 -0.17578,-0.5625 -0.1172,-0.16992 -0.28126,-0.29589 -0.49219,-0.37793 -0.20508,-0.082 -0.58887,-0.12304 -1.15137,-0.12305 l -1.30957,0 0,2.15332" />
      </g>
    </g>
  </g>
</svg>
