<svg xmlns="http://www.w3.org/2000/svg" enable-background="new 0 0 100 100" viewBox="5 -10 10.168841 13.5" height="10" width="10.169">
 <g transform="matrix(.11638 0 0 .11638 3.637-10.116)">
  <path d="m-3.576 60h117.95" fill="none" fill-rule="evenodd" stroke="#000000" stroke-linejoin="round" stroke-width="4.05"/>
  <circle r="15" cy="102" cx="55.4"/>
  <path d="m102.74 18.651l-47.34 18.408-47.34-18.408 12.412 41.37-4.957 23.546 39.882 20.584 39.882-20.584-4.957-23.546" fill="#ffffff"/>
  <path d="m97.59 23.303l-42.19 16.405-42.19-16.405 11.06 36.87-4.418 20.984 35.542 18.344 35.542-18.344-4.418-20.984 11.06-36.87m-72 13.394l25.815 10.04v41.698l-22.458-11.591 3.582-17.02-6.939-23.13m56.27 40.15l-22.458 11.592v-41.699l25.814-10.04-6.938 23.13 3.582 17.02z"/>
  <circle cx="55.4" cy="16" r="15"/>
 </g>
</svg>
