<?xml version="1.0" encoding="UTF-8" standalone="no"?>
<svg
   xmlns:dc="http://purl.org/dc/elements/1.1/"
   xmlns:cc="http://creativecommons.org/ns#"
   xmlns:rdf="http://www.w3.org/1999/02/22-rdf-syntax-ns#"
   xmlns:svg="http://www.w3.org/2000/svg"
   xmlns="http://www.w3.org/2000/svg"
   xmlns:sodipodi="http://sodipodi.sourceforge.net/DTD/sodipodi-0.dtd"
   xmlns:inkscape="http://www.inkscape.org/namespaces/inkscape"
   xml:space="preserve"
   enable-background="new 0 0 100 100"
   viewBox="5 -10 10.168841 13.5"
   height="10"
   width="10.168841"
   y="0px"
   x="0px"
   id="Your_Icon"
   version="1.1"
   inkscape:version="0.91 r13725"
   sodipodi:docname="pivotpaper.svg"
   inkscape:export-filename="D:\Downloads\polymer-tutorial-master\polymer-tutorial-master\starter\pivotpaper.png"
   inkscape:export-xdpi="2655.1699"
   inkscape:export-ydpi="2655.1699"><sodipodi:namedview
     pagecolor="#ffffff"
     bordercolor="#666666"
     borderopacity="1"
     objecttolerance="10"
     gridtolerance="10"
     guidetolerance="10"
     inkscape:pageopacity="1"
     inkscape:pageshadow="2"
     inkscape:window-width="1298"
     inkscape:window-height="624"
     id="namedview11"
     showgrid="false"
     inkscape:zoom="23.6"
     inkscape:cx="5.0844207"
     inkscape:cy="5"
     inkscape:window-x="2376"
     inkscape:window-y="201"
     inkscape:window-maximized="0"
     inkscape:current-layer="Your_Icon" /><metadata
     id="metadata15"><rdf:RDF><cc:Work
         rdf:about=""><dc:format>image/svg+xml</dc:format><dc:type
           rdf:resource="http://purl.org/dc/dcmitype/StillImage" /><dc:title></dc:title></cc:Work></rdf:RDF></metadata><defs
     id="defs13" /><g
     transform="matrix(0.11638385,0,0,0.11638385,3.6366973,-10.116384)"
     id="g4219"><path
       style="fill:none;fill-rule:evenodd;stroke:#000000;stroke-width:4.05000019;stroke-linecap:butt;stroke-linejoin:round;stroke-miterlimit:4;stroke-dasharray:none;stroke-opacity:1"
       d="m -3.5764812,60.001218 117.9539612,0"
       id="path4200" /><circle
       id="circle4143"
       r="15"
       cy="101.99548"
       cx="55.400002" /><path
       d="M 102.73727,18.650733 55.399938,37.058948 8.0637287,18.650733 20.475387,60.022928 15.517905,83.569286 55.399938,104.15327 95.281972,83.569286 90.32449,60.022928 Z"
       id="path3-5"
       style="fill:#ffffff" /><path
       d="M 97.586,23.303 55.4,39.708 13.215,23.303 24.276,60.173 19.858,81.157 55.4,99.501 90.942,81.157 86.524,60.173 97.586,23.303 Z M 25.585,36.697 51.4,46.736 51.4,88.434 28.942,76.843 32.524,59.827 25.585,36.697 Z M 81.858,76.843 59.4,88.435 l 0,-41.699 25.814,-10.039 -6.938,23.13 3.582,17.016 z"
       id="path3" /><circle
       cx="55.400002"
       cy="16"
       r="15"
       id="circle5" /></g></svg>