<?xml version="1.0" encoding="UTF-8" standalone="no"?>
<svg
   xmlns:dc="http://purl.org/dc/elements/1.1/"
   xmlns:cc="http://creativecommons.org/ns#"
   xmlns:rdf="http://www.w3.org/1999/02/22-rdf-syntax-ns#"
   xmlns:svg="http://www.w3.org/2000/svg"
   xmlns="http://www.w3.org/2000/svg"
   xmlns:sodipodi="http://sodipodi.sourceforge.net/DTD/sodipodi-0.dtd"
   xmlns:inkscape="http://www.inkscape.org/namespaces/inkscape"
   version="1.1"
   id="Your_Icon"
   x="0px"
   y="0px"
   width="10.168841"
   height="10"
   viewBox="5 -10 10.168841 13.5"
   enable-background="new 0 0 100 100"
   xml:space="preserve"
   inkscape:version="0.91 r13725"
   sodipodi:docname="noun_80055_cc.svg"><metadata
     id="metadata15"><rdf:RDF><cc:Work
         rdf:about=""><dc:format>image/svg+xml</dc:format><dc:type
           rdf:resource="http://purl.org/dc/dcmitype/StillImage" /><dc:title></dc:title></cc:Work></rdf:RDF></metadata><defs
     id="defs13" /><sodipodi:namedview
     pagecolor="#ffffff"
     bordercolor="#666666"
     borderopacity="1"
     objecttolerance="10"
     gridtolerance="10"
     guidetolerance="10"
     inkscape:pageopacity="0"
     inkscape:pageshadow="2"
     inkscape:window-width="2560"
     inkscape:window-height="1027"
     id="namedview11"
     showgrid="false"
     fit-margin-top="0"
     fit-margin-left="0"
     fit-margin-right="0"
     fit-margin-bottom="0"
     inkscape:zoom="37.76"
     inkscape:cx="3.3489635"
     inkscape:cy="3.8868346"
     inkscape:window-x="1912"
     inkscape:window-y="22"
     inkscape:window-maximized="1"
     inkscape:current-layer="Your_Icon" /><g
     id="g4219"
     transform="matrix(0.11638385,0,0,0.11638385,3.6366973,-10.116384)"><path
       inkscape:connector-curvature="0"
       id="path4200"
       d="m -3.5764812,60.001218 117.9539612,0"
       style="fill:none;fill-rule:evenodd;stroke:#000000;stroke-width:4.05000019;stroke-linecap:butt;stroke-linejoin:round;stroke-miterlimit:4;stroke-dasharray:none;stroke-opacity:1" /><circle
       cx="55.400002"
       cy="101.99548"
       r="15"
       id="circle4143" /><path
       style="fill:#ffffff"
       sodipodi:nodetypes="ccccccccc"
       inkscape:connector-curvature="0"
       id="path3-5"
       d="M 102.73727,18.650733 55.399938,37.058948 8.0637287,18.650733 20.475387,60.022928 15.517905,83.569286 55.399938,104.15327 95.281972,83.569286 90.32449,60.022928 Z" /><path
       inkscape:connector-curvature="0"
       id="path3"
       d="M 97.586,23.303 55.4,39.708 13.215,23.303 24.276,60.173 19.858,81.157 55.4,99.501 90.942,81.157 86.524,60.173 97.586,23.303 Z M 25.585,36.697 51.4,46.736 51.4,88.434 28.942,76.843 32.524,59.827 25.585,36.697 Z M 81.858,76.843 59.4,88.435 l 0,-41.699 25.814,-10.039 -6.938,23.13 3.582,17.016 z" /><circle
       id="circle5"
       r="15"
       cy="16"
       cx="55.400002" /></g></svg>