<?xml version="1.0" encoding="UTF-8" standalone="no"?>
<!-- Created with Inkscape (http://www.inkscape.org/) -->

<svg
   xmlns:dc="http://purl.org/dc/elements/1.1/"
   xmlns:cc="http://creativecommons.org/ns#"
   xmlns:rdf="http://www.w3.org/1999/02/22-rdf-syntax-ns#"
   xmlns:svg="http://www.w3.org/2000/svg"
   xmlns="http://www.w3.org/2000/svg"
   xmlns:sodipodi="http://sodipodi.sourceforge.net/DTD/sodipodi-0.dtd"
   xmlns:inkscape="http://www.inkscape.org/namespaces/inkscape"
   version="1.0"
   width="2550"
   height="570"
   id="svg2354"
   inkscape:version="0.48.2 r9819"
   sodipodi:docname="Logo-der_spiegel.svg">
  <metadata
     id="metadata12">
    <rdf:RDF>
      <cc:Work
         rdf:about="">
        <dc:format>image/svg+xml</dc:format>
        <dc:type
           rdf:resource="http://purl.org/dc/dcmitype/StillImage" />
      </cc:Work>
    </rdf:RDF>
  </metadata>
  <sodipodi:namedview
     pagecolor="#ffffff"
     bordercolor="#666666"
     borderopacity="1"
     objecttolerance="10"
     gridtolerance="10"
     guidetolerance="10"
     inkscape:pageopacity="0"
     inkscape:pageshadow="2"
     inkscape:window-width="1280"
     inkscape:window-height="778"
     id="namedview10"
     showgrid="false"
     inkscape:zoom="0.35715825"
     inkscape:cx="1291.5367"
     inkscape:cy="257.11275"
     inkscape:window-x="-8"
     inkscape:window-y="-8"
     inkscape:window-maximized="1"
     inkscape:current-layer="svg2354" />
  <defs
     id="defs2356" />
  <g
     transform="matrix(0.9387908,0,0,1,1.5302055,0)"
     id="g2266">
    <rect
       width="2663"
       height="469.34601"
       x="24.999615"
       y="50.327"
       style="fill:#EA3D05;fill-opacity:1;fill-rule:nonzero;stroke:none;stroke-width:1.00187933;stroke-linecap:butt;stroke-linejoin:bevel;stroke-miterlimit:4;stroke-dasharray:none;stroke-dashoffset:0;stroke-opacity:1"
       id="rect4407" />
    <g
       id="g2262">
      <path
         d="M 155.29785,438.03906 L 155.29785,388.75 L 180.75238,388.75 L 180.75238,388.75 L 180.75238,182.19795 L 155.29785,182.19795 L 155.42106,132.45978 L 341.54411,132.0358 C 341.54411,132.0358 349.74835,132.13151 357.50249,136.14856 C 364.24069,139.6393 367.44397,143.05757 371.58605,149.77921 C 375.72812,156.50084 376.06091,163.47647 376.06091,163.47647 L 376.10144,404.23219 C 376.02825,422.5513 359.37584,437.95815 340.69853,438.07039 C 274.68669,436.97829 221.29723,439.61647 155.29785,438.03906 z M 315.53935,388.75 C 315.40302,322.55522 315.53935,253.51814 315.53935,182.19795 L 241.92156,182.6389 C 241.844,253.51814 241.844,331.62641 241.844,388.75 C 241.844,388.75 315.53935,388.75 315.53935,388.75 z M 411.91075,388.75 C 411.91075,388.75 412.21919,388.75 435.6489,388.75 C 435.6489,388.75 435.6489,184.56466 435.6489,182.19795 L 411.91075,182.19795 L 411.91075,131.98047 L 633.4235,132.45978 L 633.68302,178.22609 L 633.94253,223.99238 L 573.9232,223.99238 C 573.9232,210.33674 573.89945,195.74091 573.89945,182.19795 L 497.42281,182.21597 L 497.42281,253.56445 L 595.92332,253.50398 L 595.92332,302.8513 C 551.97715,302.8513 564.23287,302.94675 497.14177,302.94675 L 497.42281,388.75112 C 520.06343,388.75112 551.52504,388.75 573.89945,388.75 L 573.9232,331.95397 L 633.92351,331.95397 L 633.92351,438.0379 L 411.92238,438.0379 L 411.91075,388.75 z M 664.13423,438.03906 C 664.13423,438.03906 664.13423,388.75 664.13423,388.75 L 693.45475,388.75 L 693.45475,182.19795 C 664.16518,182.17993 664.13423,182.19795 664.13423,182.19795 C 664.13423,182.19795 664.13423,131.98047 664.13423,131.98047 C 664.13423,131.98047 798.14494,132.08106 855.96529,132.09271 C 879.35696,132.09742 892.22944,149.32339 892.59784,165.76999 L 891.72698,203.12482 C 891.98708,242.94225 892.39717,239.98633 892.39717,245.83648 C 892.39717,261.91484 880.159,273.59429 870.38985,277.18133 C 861.81562,280.32962 851.40861,279.80707 860.20436,279.80707 C 871.09104,279.80707 892.23418,291.35963 892.23418,313.26173 L 892.42482,388.75112 L 917.47845,388.75 L 917.42495,437.56851 L 804.92415,438.03906 L 804.92415,388.75 C 804.92415,388.75 828.10065,388.75 828.10065,388.75 C 828.10065,388.75 828.10065,302.77233 828.10065,302.77233 C 804.92415,302.77233 778.18533,302.91773 753.61101,302.77233 C 753.61101,302.77233 753.61101,388.75 753.61101,388.75 L 777.43653,388.75 L 777.43653,438.03906 C 777.43653,438.03906 693.45475,438.03906 664.13423,438.03906 z M 828.1745,253.41903 L 828.92449,181.78234 C 777.43653,182.19795 777.43653,182.19795 753.61101,182.19795 C 753.61101,182.19795 752.50714,251.9665 753.61101,253.51814 C 777.43653,253.51814 809.53079,254.45813 828.1745,253.41903 z M 1068.324,438.03336 C 1045.3421,438.03336 1032.1178,418.56781 1032.1178,404.42795 C 1032.1178,378.57297 1032.2187,331.67867 1032.2187,331.67867 L 1092.2415,331.5869 C 1092.1575,331.25934 1092.8416,388.75 1092.8416,388.75 L 1165.426,388.75112 C 1164.9925,388.75 1164.9925,331.62641 1164.9925,302.77233 L 1032.2073,302.77233 L 1032.23,165.54423 C 1032.1673,145.20729 1052.4807,132.19645 1068.276,132.09271 C 1111.8145,131.80674 1192.1849,132.09271 1192.1849,132.09271 C 1213.9658,132.0466 1228.6222,148.39221 1228.6723,165.91434 L 1228.4799,223.51161 L 1164.9925,223.51161 L 1165.426,182.21597 C 1141.2339,182.1712 1092.8416,182.19795 1092.8416,182.19795 C 1092.8416,182.19795 1092.2698,251.41527 1094.2695,252.97329 L 1228.4799,253.51814 C 1228.6415,304.17618 1228.5587,353.90507 1228.4336,404.37755 C 1228.4336,424.78584 1208.8863,438.2636 1191.3786,438.2636 C 1180.7871,438.2636 1156.7871,438.0072 1130.4944,438.0072 C 1106.4329,438.0072 1080.5925,438.03336 1068.324,438.03336 z M 1261.7604,388.75 L 1286.667,388.75 L 1286.6811,285.71818 L 1286.4267,182.21597 L 1261.7604,182.19795 L 1261.9265,131.94655 L 1450.3274,132.00094 C 1469.3653,132.00094 1486.4277,146.15844 1486.4277,165.9113 C 1486.4277,187.45817 1486.4277,216.95142 1486.4277,216.95142 L 1486.4277,268.90918 C 1486.4277,288.23515 1469.5171,302.61291 1449.6278,302.61291 L 1432.5156,302.3819 C 1343.4988,302.77233 1373.4108,302.77233 1350.4365,302.77233 L 1350.4365,388.75 L 1373.4108,388.75 L 1373.4108,438.03906 L 1261.7604,438.03906 L 1261.7604,388.75 z M 1424.7271,253.51814 C 1424.7271,223.51161 1424.7271,182.19795 1424.7271,182.19795 L 1350.4365,182.19795 C 1350.946,182.4304 1350.4365,223.51161 1350.4365,253.51814 C 1350.4365,253.51814 1423.6229,254.15887 1424.7271,253.51814 z M 1501.8088,388.75 L 1525.4271,388.75 L 1525.4279,182.21597 L 1501.8088,182.19795 L 1501.9277,131.99039 L 1610.8827,131.98047 L 1610.8827,182.19795 L 1587.2643,182.19795 L 1587.2643,388.75 L 1610.8827,388.75 L 1610.9283,438.0379 L 1501.8088,438.03906 L 1501.8088,388.75 z M 1639.8689,388.75 L 1662.4286,388.75112 L 1662.199,182.19795 L 1639.8689,182.19795 L 1639.8689,131.98047 L 1861.452,131.98047 L 1861.452,223.51161 L 1801.762,223.51161 C 1801.762,223.51161 1801.762,182.19795 1801.762,182.19795 L 1725.4289,182.21597 C 1725.3244,182.19795 1725.3244,223.51161 1725.3244,253.51814 L 1824.0921,253.51814 L 1824.0921,302.77233 C 1801.762,302.77233 1725.3244,302.77233 1725.3244,302.77233 L 1725.3244,388.75 C 1725.3244,388.75 1801.762,388.75 1801.762,388.75 L 1801.9293,331.92599 L 1861.4297,332.42337 L 1861.4297,384.99594 L 1861.4297,437.56851 L 1639.8946,438.04607 L 1639.8689,388.75 z M 1930.6738,438.21873 C 1902.4132,438.21873 1892.6822,415.46212 1892.6822,404.30472 C 1892.6822,393.20546 1892.8738,423.53782 1893.1656,283.08514 L 1893.4297,163.82174 C 1893.4297,150.81021 1907.0008,132.45978 1928.9871,132.45978 C 1972.7907,132.45978 2015.2012,132.09271 2054.7758,132.09271 C 2074.6882,132.09271 2090.0423,148.25573 2090.0423,166.30363 L 2090.0218,224.01886 L 2025.7603,223.51161 L 2025.7603,182.19795 L 1953.4301,182.21597 L 1953.2507,388.75 L 2025.7603,388.75 C 2025.9993,360.09064 2025.8716,331.43178 2025.7603,302.77233 L 1975.8751,302.77233 L 1975.8751,253.51814 L 2089.9248,253.51814 L 2089.9308,438.0379 L 2005.6804,437.97247 C 1974.7681,437.97247 1958.9694,438.21873 1930.6738,438.21873 z M 2123.0425,438.03906 L 2123.0425,388.75 L 2145.8593,388.75 L 2145.8593,182.19795 L 2123.0425,182.19795 L 2123.0425,131.98047 L 2344.932,131.99039 L 2344.6531,223.51161 L 2284.8576,223.51161 C 2284.8576,223.51161 2284.8576,182.19795 2284.8576,182.19795 L 2209.8509,182.19795 C 2209.8509,223.51161 2209.8509,223.51161 2209.8509,253.51814 L 2306.9319,254.03385 L 2306.6253,302.77233 C 2284.8576,302.77233 2209.8509,302.77233 2209.8509,302.77233 L 2209.8509,388.75 C 2209.8509,388.75 2284.8576,388.75 2284.8576,388.75 L 2284.9318,331.95397 L 2344.932,331.95397 L 2344.932,438.0379 C 2123.0425,438.03906 2123.0425,438.03906 2123.0425,438.03906 z M 2379.9322,389.27825 L 2404.9732,388.75 C 2404.9732,331.62641 2404.9732,253.51814 2404.9732,182.19795 L 2379.7961,182.19795 L 2379.9322,131.99039 L 2493.8796,131.98047 L 2493.8796,182.19795 C 2493.8796,182.19795 2467.3913,182.19795 2467.3913,182.19795 L 2467.3913,388.75 L 2542.398,388.75 L 2542.398,331.62641 L 2602.1935,331.62641 L 2602.1935,438.03906 L 2379.7961,438.03906 L 2379.9322,389.27825 z "
         style="fill:#000000;fill-opacity:1"
         id="path2236" />
      <path
         d="M 115.33847,438.03906 L 115.33847,388.75 L 140.79301,388.75 L 140.79301,388.75 L 140.79301,182.19795 L 115.33847,182.19795 L 115.46168,132.45978 L 301.58473,132.0358 C 301.58473,132.0358 309.78897,132.13151 317.54312,136.14856 C 324.28131,139.6393 327.48459,143.05757 331.62667,149.77921 C 335.76875,156.50084 336.10154,163.47647 336.10154,163.47647 L 336.14207,404.23219 C 336.06888,422.5513 319.41646,437.95815 300.73915,438.07039 C 234.72731,436.97829 181.33785,439.61647 115.33847,438.03906 z M 275.57998,388.75 C 275.44364,322.55522 275.57998,253.51814 275.57998,182.19795 L 201.96218,182.6389 C 201.88463,253.51814 201.88463,331.62641 201.88463,388.75 C 201.88463,388.75 275.57998,388.75 275.57998,388.75 z M 371.95138,388.75 C 371.95138,388.75 372.25981,388.75 395.68952,388.75 C 395.68952,388.75 395.68952,184.56466 395.68952,182.19795 L 371.95138,182.19795 L 371.95138,131.98047 L 593.46413,132.45978 L 593.72364,178.22609 L 593.98316,223.99238 L 533.96383,223.99238 C 533.96383,210.33674 533.94008,195.74091 533.94008,182.19795 L 457.46343,182.21597 L 457.46343,253.56445 L 555.96394,253.50398 L 555.96394,302.8513 C 512.01778,302.8513 524.27349,302.94675 457.18239,302.94675 L 457.46343,388.75112 C 480.10405,388.75112 511.56566,388.75 533.94008,388.75 L 533.96383,331.95397 L 593.96413,331.95397 L 593.96413,438.0379 L 371.96301,438.0379 L 371.95138,388.75 z M 624.17486,438.03906 C 624.17486,438.03906 624.17486,388.75 624.17486,388.75 L 653.49537,388.75 L 653.49537,182.19795 C 624.2058,182.17993 624.17486,182.19795 624.17486,182.19795 C 624.17486,182.19795 624.17486,131.98047 624.17486,131.98047 C 624.17486,131.98047 758.18556,132.08106 816.00591,132.09271 C 839.39758,132.09742 852.27006,149.32339 852.63846,165.76999 L 851.76761,203.12482 C 852.02771,242.94225 852.43779,239.98633 852.43779,245.83648 C 852.43779,261.91484 840.19962,273.59429 830.43048,277.18133 C 821.85625,280.32962 811.44924,279.80707 820.24498,279.80707 C 831.13166,279.80707 852.2748,291.35963 852.2748,313.26173 L 852.46544,388.75112 L 877.51908,388.75 L 877.46557,437.56851 L 764.96477,438.03906 L 764.96477,388.75 C 764.96477,388.75 788.14127,388.75 788.14127,388.75 C 788.14127,388.75 788.14127,302.77233 788.14127,302.77233 C 764.96477,302.77233 738.22596,302.91773 713.65163,302.77233 C 713.65163,302.77233 713.65163,388.75 713.65163,388.75 L 737.47716,388.75 L 737.47716,438.03906 C 737.47716,438.03906 653.49537,438.03906 624.17486,438.03906 z M 788.21512,253.41903 L 788.96512,181.78234 C 737.47716,182.19795 737.47716,182.19795 713.65163,182.19795 C 713.65163,182.19795 712.54777,251.9665 713.65163,253.51814 C 737.47716,253.51814 769.57141,254.45813 788.21512,253.41903 z M 1028.3648,438.03336 C 1005.3828,438.03336 992.15845,418.56781 992.15845,404.42795 C 992.15845,378.57297 992.25941,331.67867 992.25941,331.67867 L 1052.2822,331.5869 C 1052.1981,331.25934 1052.8824,388.75 1052.8824,388.75 L 1125.4668,388.75112 C 1125.0332,388.75 1125.0332,331.62641 1125.0332,302.77233 L 992.24793,302.77233 L 992.27064,165.54423 C 992.20799,145.20729 1012.5214,132.19645 1028.3167,132.09271 C 1071.8553,131.80674 1152.2257,132.09271 1152.2257,132.09271 C 1174.0065,132.0466 1188.663,148.39221 1188.713,165.91434 L 1188.5206,223.51161 L 1125.0332,223.51161 L 1125.4668,182.21597 C 1101.2746,182.1712 1052.8824,182.19795 1052.8824,182.19795 C 1052.8824,182.19795 1052.3106,251.41527 1054.3103,252.97329 L 1188.5206,253.51814 C 1188.6822,304.17618 1188.5995,353.90507 1188.4743,404.37755 C 1188.4743,424.78584 1168.927,438.2636 1151.4193,438.2636 C 1140.8278,438.2636 1116.8278,438.0072 1090.5352,438.0072 C 1066.4737,438.0072 1040.6332,438.03336 1028.3648,438.03336 z M 1221.8011,388.75 L 1246.7077,388.75 L 1246.7219,285.71818 L 1246.4674,182.21597 L 1221.8011,182.19795 L 1221.9673,131.94655 L 1410.3682,132.00094 C 1429.4061,132.00094 1446.4684,146.15844 1446.4684,165.9113 C 1446.4684,187.45817 1446.4684,216.95142 1446.4684,216.95142 L 1446.4684,268.90918 C 1446.4684,288.23515 1429.5579,302.61291 1409.6686,302.61291 L 1392.5563,302.3819 C 1303.5395,302.77233 1333.4515,302.77233 1310.4773,302.77233 L 1310.4773,388.75 L 1333.4515,388.75 L 1333.4515,438.03906 L 1221.8011,438.03906 L 1221.8011,388.75 z M 1384.7678,253.51814 C 1384.7678,223.51161 1384.7678,182.19795 1384.7678,182.19795 L 1310.4773,182.19795 C 1310.9868,182.4304 1310.4773,223.51161 1310.4773,253.51814 C 1310.4773,253.51814 1383.6636,254.15887 1384.7678,253.51814 z M 1461.8495,388.75 L 1485.4679,388.75 L 1485.4686,182.21597 L 1461.8495,182.19795 L 1461.9685,131.99039 L 1570.9234,131.98047 L 1570.9234,182.19795 L 1547.305,182.19795 L 1547.305,388.75 L 1570.9234,388.75 L 1570.9691,438.0379 L 1461.8495,438.03906 L 1461.8495,388.75 z M 1599.9096,388.75 L 1622.4694,388.75112 L 1622.2397,182.19795 L 1599.9096,182.19795 L 1599.9096,131.98047 L 1821.4928,131.98047 L 1821.4928,223.51161 L 1761.8027,223.51161 C 1761.8027,223.51161 1761.8027,182.19795 1761.8027,182.19795 L 1685.4696,182.21597 C 1685.3651,182.19795 1685.3651,223.51161 1685.3651,253.51814 L 1784.1328,253.51814 L 1784.1328,302.77233 C 1761.8027,302.77233 1685.3651,302.77233 1685.3651,302.77233 L 1685.3651,388.75 C 1685.3651,388.75 1761.8027,388.75 1761.8027,388.75 L 1761.97,331.92599 L 1821.4704,332.42337 L 1821.4704,384.99594 L 1821.4704,437.56851 L 1599.9354,438.04607 L 1599.9096,388.75 z M 1890.7146,438.21873 C 1862.454,438.21873 1852.7229,415.46212 1852.7229,404.30472 C 1852.7229,393.20546 1852.9146,423.53782 1853.2063,283.08514 L 1853.4705,163.82174 C 1853.4705,150.81021 1867.0416,132.45978 1889.0278,132.45978 C 1932.8315,132.45978 1975.242,132.09271 2014.8165,132.09271 C 2034.7289,132.09271 2050.083,148.25573 2050.083,166.30363 L 2050.0626,224.01886 L 1985.801,223.51161 L 1985.801,182.19795 L 1913.4708,182.21597 L 1913.2915,388.75 L 1985.801,388.75 C 1986.04,360.09064 1985.9123,331.43178 1985.801,302.77233 L 1935.9159,302.77233 L 1935.9159,253.51814 L 2049.9655,253.51814 L 2049.9715,438.0379 L 1965.7211,437.97247 C 1934.8088,437.97247 1919.0101,438.21873 1890.7146,438.21873 z M 2083.0832,438.03906 L 2083.0832,388.75 L 2105.9,388.75 L 2105.9,182.19795 L 2083.0832,182.19795 L 2083.0832,131.98047 L 2304.9727,131.99039 L 2304.6939,223.51161 L 2244.8984,223.51161 C 2244.8984,223.51161 2244.8984,182.19795 2244.8984,182.19795 L 2169.8917,182.19795 C 2169.8917,223.51161 2169.8917,223.51161 2169.8917,253.51814 L 2266.9726,254.03385 L 2266.666,302.77233 C 2244.8984,302.77233 2169.8917,302.77233 2169.8917,302.77233 L 2169.8917,388.75 C 2169.8917,388.75 2244.8984,388.75 2244.8984,388.75 L 2244.9725,331.95397 L 2304.9727,331.95397 L 2304.9727,438.0379 C 2083.0832,438.03906 2083.0832,438.03906 2083.0832,438.03906 z M 2339.973,389.27825 L 2365.0139,388.75 C 2365.0139,331.62641 2365.0139,253.51814 2365.0139,182.19795 L 2339.8368,182.19795 L 2339.973,131.99039 L 2453.9204,131.98047 L 2453.9204,182.19795 C 2453.9204,182.19795 2427.432,182.19795 2427.432,182.19795 L 2427.432,388.75 L 2502.4387,388.75 L 2502.4387,331.62641 L 2562.2342,331.62641 L 2562.2342,438.03906 L 2339.8368,438.03906 L 2339.973,389.27825 z "
         style="fill:#ffffff;fill-opacity:1"
         id="path5380" />
    </g>
  </g>
</svg>
